<svg xmlns="http://www.w3.org/2000/svg" width="471.657" height="288.323" viewBox="0 0 471.657 288.323"><g transform="translate(6.25)"><path d="M460.087,42.413c15.689,10.5-16.659,58.819-24.189,68.346-11.353,14.377-37.71,41.7-56.366,22.364-7.474-7.645-12.323-31.206-15.575-42.217-2.8-9.527-9.527-32.462-15.86-47.238-5.648,13.92-11.3,32.8-15.575,44.1-15.232,39.992-38.737,81.924-88.77,74.451-44.328-6.732-102.291-59.446-143.881-82.837C72.944,64.206,50.782,56.3,17.244,61.47c-8.054,1.471-3.764.691-12.075,2.337,1.279-2.41,3.366-4.336,9.128-7.474,41.59-22.364,95.73,5.876,131.843,27.1,25.844,15.175,83.35,56.023,113.473,49.405,21.223-4.678,32.4-32.861,40.563-50.489,7.417-16.2,18.484-48.436,26.814-61.671C335.946,6.472,350.208-.26,362.759,14c12.836,14.719,24.246,71.712,28.468,92.079.285,1.54,1.426,14.034,4.792,13.749,18.028-1.654,59.047-64.124,59.047-64.124A56.743,56.743,0,0,0,460.087,42.413Z" transform="translate(-5.169 -6.093)" fill="#fff" fill-rule="evenodd"/><g transform="translate(-983.758 -810.245)"><g transform="translate(1371.021 1006.319)"><path d="M223.205,372.007a10.711,10.711,0,0,1,2.736,7.161,10.87,10.87,0,0,1-19.052,7.2l-19.93-23a5.114,5.114,0,0,0-3.834-1.74H176.59a1.694,1.694,0,0,0-1.689,1.689v15.37a11.4,11.4,0,1,1-22.8,0V351.655a11.273,11.273,0,0,1,11.265-11.265h32.614c8.259,0,11.215-5.286,11.215-10.252,0-4.645-2.6-9.576-9.728-10.168,6.1.3,29.067,2.567,31.516,18.663a26.923,26.923,0,0,1-15.674,18.832,1.681,1.681,0,0,0-.557,2.635Z" transform="translate(-152.1 -298.081)" fill="#fff"/><path d="M163.5,390.329a11.646,11.646,0,0,1-11.65-11.651V351.655a11.528,11.528,0,0,1,11.515-11.515h32.614c8.084,0,10.965-5.167,10.965-10,0-4.414-2.5-9.337-9.5-9.918l.033-.5a59.251,59.251,0,0,1,17.2,3.426,27.912,27.912,0,0,1,9.373,5.642,16.827,16.827,0,0,1,5.174,9.807l.007.049-.012.048a27.191,27.191,0,0,1-15.815,19,1.4,1.4,0,0,0-.794.99,1.42,1.42,0,0,0,.322,1.251l10.455,11.907a11.032,11.032,0,0,1,2.8,7.326,11.33,11.33,0,0,1-2.256,6.765,10.909,10.909,0,0,1-6.262,4.085,11.121,11.121,0,0,1-10.972-3.49l-19.93-23a4.85,4.85,0,0,0-3.645-1.653H176.59a1.441,1.441,0,0,0-1.439,1.439v15.37A11.668,11.668,0,0,1,163.5,390.329Zm-.135-49.689a11.028,11.028,0,0,0-11.015,11.015v27.023a11.151,11.151,0,0,0,22.3,0v-15.37a1.941,1.941,0,0,1,1.939-1.939h6.536a5.351,5.351,0,0,1,4.022,1.825l19.931,23a10.62,10.62,0,0,0,18.613-7.031,10.392,10.392,0,0,0-2.673-7l-10.456-11.908a1.915,1.915,0,0,1-.435-1.687,1.891,1.891,0,0,1,1.078-1.341,26.7,26.7,0,0,0,15.521-18.615c-1.044-6.735-5.829-11.784-14.225-15.009a55.408,55.408,0,0,0-13.324-3.087q.479.183.926.4a9.273,9.273,0,0,1,3.093,2.445,10.672,10.672,0,0,1,2.248,6.762,10.535,10.535,0,0,1-2.576,7.157,9.536,9.536,0,0,1-3.56,2.424,14.387,14.387,0,0,1-5.329.921Z" transform="translate(-152.1 -298.081)" fill="#fff"/><path d="M229.995,338.712a36.88,36.88,0,0,1-1.013,8.85c-2.449-16.1-25.419-18.359-31.516-18.663a.692.692,0,0,0-.186-.017c-.828-.051-1.3-.051-1.3-.051H163.011a10.911,10.911,0,1,1,.017-21.821c4.662.017,9.695.034,12.718.051q10.108.051,20.234.051C219.354,307.263,229.995,323.6,229.995,338.712Z" transform="translate(-152.1 -307.01)" fill="#fff"/><path d="M229.224,347.622l-.49-.022c-1.028-6.759-5.817-11.826-14.232-15.058a58.73,58.73,0,0,0-17.049-3.393h-.024l-.024-.006a.46.46,0,0,0-.125-.009h-.015c-.809-.049-1.281-.05-1.285-.05H163.011a11.161,11.161,0,1,1,.017-22.321l2.128.008c3.945.014,8.024.029,10.591.043,6.712.034,13.519.051,20.232.051,23.543.153,34.266,16.618,34.266,31.85A37.268,37.268,0,0,1,229.224,347.622ZM197.5,328.65a59.235,59.235,0,0,1,17.181,3.425,27.912,27.912,0,0,1,9.373,5.642A16.878,16.878,0,0,1,229,346.33a37.71,37.71,0,0,0,.74-7.618c0-14.994-10.567-31.2-33.767-31.35-6.713,0-13.521-.017-20.233-.051-2.567-.014-6.646-.029-10.591-.043l-2.127-.008a10.661,10.661,0,1,0-.016,21.321h32.969c.02,0,.487,0,1.308.051A.949.949,0,0,1,197.5,328.65Z" transform="translate(-152.1 -307.01)" fill="#fff"/></g><g transform="translate(1276.518 1005.948)"><path d="M123.4,447.13l-10.725,25.926a15.972,15.972,0,0,1-5.844,7.127,15.843,15.843,0,0,1-23.443-7.127L55.905,406.662a11.624,11.624,0,1,1,21.585-8.631l18.916,48.828a.92.92,0,0,0,.068.169C97.437,449.612,109.293,479.879,123.4,447.13Z" transform="translate(-55.01 -390.6)" fill="#fff"/><path d="M98.028,483.1a16.09,16.09,0,0,1-14.874-9.951L55.674,406.758a11.858,11.858,0,0,1-.914-4.554,11.689,11.689,0,0,1,.9-4.5,11.975,11.975,0,0,1,2.488-3.78,11.866,11.866,0,0,1,19.576,4.014L96.649,446.8h0a.758.758,0,0,0,.049.118l.011.025c.574,1.541,5.823,15.057,13.214,15.057,4.511,0,8.967-5.036,13.244-14.967l.461.194L112.9,473.151a16.226,16.226,0,0,1-5.935,7.239A16.025,16.025,0,0,1,98.028,483.1ZM66.647,390.85a11.345,11.345,0,0,0-10.511,15.716L83.616,472.96a15.593,15.593,0,0,0,23.073,7.015,15.727,15.727,0,0,0,5.752-7.015l7.938-19.188a28.478,28.478,0,0,1-3.874,5.34c-2.15,2.247-4.364,3.387-6.582,3.387h0a8.424,8.424,0,0,1-5.349-2.2,21.716,21.716,0,0,1-4.172-4.892,45.891,45.891,0,0,1-4.157-8.281,1.22,1.22,0,0,1-.075-.189L77.257,398.122A11.273,11.273,0,0,0,66.647,390.85Z" transform="translate(-55.01 -390.6)" fill="#fff"/><path d="M123.237,406.662l-16.282,39.353c-.152.388-.321.76-.473,1.115-14.1,32.749-25.959,2.483-26.922-.1a1.692,1.692,0,0,0,3.074-.169l19-48.845a11.628,11.628,0,0,1,10.843-7.415h.017A11.626,11.626,0,0,1,123.237,406.662Z" transform="translate(-38.096 -390.6)" fill="#fff"/><path d="M112.478,390.35h.017a11.71,11.71,0,0,1,5.734,1.464,11.982,11.982,0,0,1,6.074,9.081,11.719,11.719,0,0,1-.835,5.862L107.186,446.11c-.109.279-.228.551-.343.814-.045.1-.089.2-.132.3-4.363,10.133-8.974,15.27-13.7,15.27a8.424,8.424,0,0,1-5.349-2.2,21.712,21.712,0,0,1-4.172-4.892,45.9,45.9,0,0,1-4.161-8.293l.456-.2a1.442,1.442,0,0,0,2.62-.145l19-48.844a11.878,11.878,0,0,1,11.076-7.574ZM93.008,462c4.511,0,8.967-5.036,13.244-14.967.043-.1.088-.2.133-.306.113-.259.23-.527.337-.8l16.283-39.357a11.376,11.376,0,0,0-10.511-15.716h-.017a11.31,11.31,0,0,0-10.61,7.255l-19,48.845a1.911,1.911,0,0,1-1.809,1.234,1.959,1.959,0,0,1-.849-.189C81.682,451.582,86.52,462,93.008,462Z" transform="translate(-38.096 -390.6)" fill="#fff"/></g><g transform="translate(1189.106 1006.302)"><rect width="78.942" height="22.328" rx="6.43" fill="#fff"/><path d="M6.43-.25H72.512a6.688,6.688,0,0,1,6.68,6.68V15.9a6.688,6.688,0,0,1-6.68,6.68H6.43A6.688,6.688,0,0,1-.25,15.9V6.43A6.688,6.688,0,0,1,6.43-.25ZM72.512,22.078a6.187,6.187,0,0,0,6.18-6.18V6.43A6.187,6.187,0,0,0,72.512.25H6.43A6.187,6.187,0,0,0,.25,6.43V15.9a6.187,6.187,0,0,0,6.18,6.18Z" fill="#fff"/><path d="M465.126,88.508A11.169,11.169,0,0,1,453.81,99.03H412.566s-24.524,0-24.676,23.325V88.812c0-.118.017-.22.017-.321s-.017-.22-.017-.321a10.863,10.863,0,0,1,10.86-10.86h55.516A10.865,10.865,0,0,1,465.126,88.508Z" transform="translate(-387.89 -42.163)" fill="#fff"/><path d="M398.75,77.06h55.516a11.115,11.115,0,0,1,11.11,11.455,10.8,10.8,0,0,1-3.579,7.667,11.8,11.8,0,0,1-7.987,3.1H412.566a32.021,32.021,0,0,0-12.189,2.9C392.319,106,388.2,112.793,388.14,122.356l-.5,0V88.812c0-.071.005-.136.01-.193s.007-.089.007-.128,0-.09-.008-.141-.009-.119-.009-.18A11.123,11.123,0,0,1,398.75,77.06Zm55.06,21.72A10.939,10.939,0,0,0,464.876,88.5a10.615,10.615,0,0,0-10.61-10.94H398.75a10.622,10.622,0,0,0-10.61,10.61c0,.041,0,.09.008.141s.009.119.009.18,0,.114-.009.168-.008.1-.008.153v28.26a21.25,21.25,0,0,1,3.466-8.346,21.637,21.637,0,0,1,8.572-7.006,31.934,31.934,0,0,1,8.515-2.572,27.148,27.148,0,0,1,3.873-.368Z" transform="translate(-387.89 -42.163)" fill="#fff"/><path d="M466.832,113.495v.844a10.863,10.863,0,0,1-10.86,10.86H398.75a10.863,10.863,0,0,1-10.86-10.86v-.844c.152-23.325,24.676-23.325,24.676-23.325a1.694,1.694,0,0,0-1.689,1.689v9.087a1.694,1.694,0,0,0,1.689,1.689h43.406A10.863,10.863,0,0,1,466.832,113.495Z" transform="translate(-387.89 -33.303)" fill="#fff"/><path d="M455.972,125.449H398.75a11.123,11.123,0,0,1-11.11-11.11v-.844a23.456,23.456,0,0,1,3.861-13.479,21.49,21.49,0,0,1,8.4-7.022,32.438,32.438,0,0,1,12.648-3.074h.018v.5h-.014a1.443,1.443,0,0,0-1.425,1.439v9.087a1.441,1.441,0,0,0,1.439,1.439h43.406a11.123,11.123,0,0,1,11.11,11.11v.844A11.123,11.123,0,0,1,455.972,125.449ZM411.195,90.491a32.021,32.021,0,0,0-11.076,2.952c-7.887,3.852-11.917,10.6-11.979,20.053v.843a10.622,10.622,0,0,0,10.61,10.61h57.222a10.622,10.622,0,0,0,10.61-10.61v-.844a10.622,10.622,0,0,0-10.61-10.61H412.566a1.941,1.941,0,0,1-1.939-1.939V91.859A1.933,1.933,0,0,1,411.195,90.491Z" transform="translate(-387.89 -33.303)" fill="#fff"/></g><g transform="translate(1094.938 1001.945)"><path d="M197.039,155.513a10.652,10.652,0,0,1-16.315,9.053,29.006,29.006,0,0,0-13.613-4.459,1.96,1.96,0,0,1-.22-.017c-.456-.017-.929-.034-1.4-.034-.355,0-.692,0-1.03.034-.169,0-.355,0-.557.017-.388.017-.811.034-1.267.084-10.911.811-38.255,6.823-42.292,46.734A54.208,54.208,0,0,1,117.1,188.06c0-23.831,15.15-49.47,48.389-49.47a48.665,48.665,0,0,1,26.888,8.175A10.408,10.408,0,0,1,197.039,155.513Z" transform="translate(-117.1 -138.59)" fill="#fff"/><path d="M165.489,138.34a48.063,48.063,0,0,1,15.533,2.568,50.72,50.72,0,0,1,11.493,5.648,10.677,10.677,0,0,1,4.774,8.958,10.9,10.9,0,0,1-3.111,7.657,10.857,10.857,0,0,1-7.783,3.271,10.966,10.966,0,0,1-5.8-1.663,28.5,28.5,0,0,0-13.49-4.421,2.262,2.262,0,0,1-.231-.017c-.4-.015-.9-.033-1.382-.033-.35,0-.68,0-1.005.033h-.025c-.169,0-.344,0-.537.016l-.059,0c-.38.016-.772.033-1.2.081h-.009c-11.317.841-38.071,7.056-42.061,46.509l-.483.062a54.117,54.117,0,0,1-3.259-18.953,55.809,55.809,0,0,1,2.9-17.863,48.589,48.589,0,0,1,8.889-15.97A43.138,43.138,0,0,1,143.8,142.741,51.974,51.974,0,0,1,165.489,138.34Zm20.905,27.6a10.294,10.294,0,0,0,7.425-3.121,10.4,10.4,0,0,0,2.969-7.307,10.178,10.178,0,0,0-4.549-8.54,48.76,48.76,0,0,0-26.751-8.133c-33.075,0-48.139,25.514-48.139,49.22a54.042,54.042,0,0,0,2.86,17.758,64.193,64.193,0,0,1,6.689-23.036,41.853,41.853,0,0,1,25.018-20.8,48.428,48.428,0,0,1,10.695-2.042c.443-.049.861-.067,1.23-.083l.044,0c.206-.017.394-.017.561-.017.346-.034.684-.034,1.043-.034.5,0,1,.019,1.411.034l.022,0a1.779,1.779,0,0,0,.189.015h.014a28.134,28.134,0,0,1,7.711,1.578,30.832,30.832,0,0,1,6.019,2.918A10.466,10.466,0,0,0,186.394,165.941Z" transform="translate(-117.1 -138.59)" fill="#fff"/><path d="M201.475,180.329v19.66a20.913,20.913,0,0,1-8.546,16.873,47.95,47.95,0,0,1-28.763,9.171c-25.655,0-39.437-12.5-45.146-27.919,4.037-39.91,31.381-45.923,42.292-46.734-13.934,1.3-23.088,12.161-23.088,27.868,0,12.127,6.823,25.081,25.942,25.081a24.17,24.17,0,0,0,13.225-3.378,5.25,5.25,0,0,0,2.6-4.493v-5.067a2.191,2.191,0,0,0-2.2-2.2h-9.019a10.556,10.556,0,0,1,0-21.112H189.23A12.243,12.243,0,0,1,201.475,180.329Z" transform="translate(-115.777 -129.778)" fill="#fff"/><path d="M161.293,151.131l.042.5c-13.888,1.3-22.861,12.137-22.861,27.619,0,12,6.749,24.831,25.692,24.831a23.92,23.92,0,0,0,13.1-3.343,5.027,5.027,0,0,0,2.478-4.277v-5.067a1.948,1.948,0,0,0-1.946-1.946h-9.019a10.806,10.806,0,0,1,0-21.612H189.23a12.493,12.493,0,0,1,12.495,12.495v19.66a21.163,21.163,0,0,1-8.648,17.074,47.278,47.278,0,0,1-11.854,6.31,50.043,50.043,0,0,1-17.057,2.909c-12.083,0-22.241-2.766-30.194-8.221a39.408,39.408,0,0,1-9.3-8.931,43.394,43.394,0,0,1-5.889-10.931l-.02-.054.006-.058c.941-9.3,3.23-17.418,6.8-24.118a41.853,41.853,0,0,1,25.018-20.8A48.427,48.427,0,0,1,161.293,151.131Zm2.873,53.448a31.36,31.36,0,0,1-12.217-2.233,21.731,21.731,0,0,1-8.114-5.847,23.282,23.282,0,0,1-4.485-8.14,29.739,29.739,0,0,1-1.377-9.111c0-7.744,2.205-14.486,6.377-19.5a23.568,23.568,0,0,1,10.083-7.1c-12.826,2.874-31.828,12.7-35.159,45.426,6.639,17.863,22.579,27.7,44.891,27.7a47.954,47.954,0,0,0,28.615-9.123,20.734,20.734,0,0,0,8.444-16.671v-19.66a12.009,12.009,0,0,0-11.995-11.995H168.777a10.306,10.306,0,1,0,0,20.612H177.8a2.448,2.448,0,0,1,2.446,2.446v5.067a5.53,5.53,0,0,1-2.723,4.707,23.526,23.526,0,0,1-6.734,2.744A28.773,28.773,0,0,1,164.166,204.579Z" transform="translate(-115.777 -129.778)" fill="#fff"/></g><g transform="translate(1008.928 1006.201)"><path d="M303.4,234.88v67.086c-.405,6.823-3.851,10.218-7.347,11.89a9.049,9.049,0,0,1-11.063-2.635L251.7,268.44s-25.841-36.887-25.841-2.331v-29A13.508,13.508,0,0,1,239.372,223.6h.422a8.471,8.471,0,0,1,6.638,3.209l31.145,39.42a1.684,1.684,0,0,0,3.006-1.047v-30.3a11.409,11.409,0,0,1,22.818,0Z" transform="translate(-225.86 -223.48)" fill="#fff"/><path d="M292,223.23a11.646,11.646,0,0,1,11.65,11.651v67.1a15.218,15.218,0,0,1-2.56,8.006,12.568,12.568,0,0,1-4.929,4.095,9.069,9.069,0,0,1-3.986.915,9.371,9.371,0,0,1-7.382-3.621l-33.3-42.792a92.719,92.719,0,0,0-6.93-8.531c-5.12-5.541-9.441-8.469-12.5-8.469-3.955,0-5.961,4.887-5.961,14.526h-.5v-29a13.758,13.758,0,0,1,13.762-13.762h.422a8.721,8.721,0,0,1,6.834,3.3l31.145,39.421a1.405,1.405,0,0,0,1.114.548,1.429,1.429,0,0,0,1.446-1.44v-30.3A11.667,11.667,0,0,1,292,223.23Zm11.15,78.729V234.88a11.159,11.159,0,0,0-22.318,0v30.3a1.925,1.925,0,0,1-1.946,1.94,1.9,1.9,0,0,1-1.505-.737l-31.145-39.421a8.17,8.17,0,0,0-6.441-3.114h-.422A13.277,13.277,0,0,0,226.11,237.11v21.832a16.871,16.871,0,0,1,1.286-4.463c1.075-2.254,2.648-3.4,4.674-3.4,1.8,0,3.965.915,6.44,2.721a46.011,46.011,0,0,1,6.426,5.913,93.342,93.342,0,0,1,6.965,8.574l33.286,42.777a8.926,8.926,0,0,0,6.987,3.429,8.574,8.574,0,0,0,3.769-.865C300.391,311.5,302.815,307.578,303.15,301.959Z" transform="translate(-225.86 -223.48)" fill="#fff"/><path d="M251.7,257.078a1.686,1.686,0,0,0-3.023,1.03v34.607a11.409,11.409,0,0,1-22.818,0V254.748C225.86,220.191,251.7,257.078,251.7,257.078Z" transform="translate(-225.86 -212.118)" fill="#fff"/><path d="M232.071,239.721c1.8,0,3.965.915,6.44,2.721a46.01,46.01,0,0,1,6.426,5.913,93.268,93.268,0,0,1,6.969,8.58l-.4.3a1.4,1.4,0,0,0-1.125-.566,1.433,1.433,0,0,0-1.451,1.443v34.607a11.659,11.659,0,0,1-23.318,0V254.748c0-5.231.6-9.144,1.787-11.629C228.472,240.864,230.045,239.721,232.071,239.721ZM250.756,256.2a93.5,93.5,0,0,0-6.19-7.512c-5.121-5.541-9.441-8.469-12.5-8.469-3.955,0-5.961,4.887-5.961,14.526v37.968a11.159,11.159,0,0,0,22.318,0V258.109a1.951,1.951,0,0,1,2.328-1.906Z" transform="translate(-225.86 -212.118)" fill="#fff"/></g><g transform="translate(977.758 1006.319)"><path d="M304.68,151.363V160.3s-22.7-.287-22.7,24.372V151.363a11.35,11.35,0,0,1,22.7,0Z" transform="translate(-281.98 -140.03)" fill="#fff"/><path d="M293.33,139.78a11.588,11.588,0,0,1,11.6,11.583v9.188l-.285,0a25.79,25.79,0,0,0-11.58,3.117c-7.189,4-10.835,11.062-10.835,21h-.5V151.363a11.581,11.581,0,0,1,11.6-11.583Zm11.1,20.27v-8.687a11.1,11.1,0,0,0-22.2,0v27.329a23.771,23.771,0,0,1,2.939-8.126,20.247,20.247,0,0,1,7.653-7.338A26.475,26.475,0,0,1,304.43,160.05Z" transform="translate(-281.98 -140.03)" fill="#fff"/><path d="M304.68,152.03v60.279a11.35,11.35,0,0,1-22.7,0V176.4C281.98,151.743,304.68,152.03,304.68,152.03Z" transform="translate(-281.98 -131.762)" fill="#fff"/><path d="M304.645,151.78l.285,0v60.526a11.6,11.6,0,0,1-23.2,0V176.4a27.1,27.1,0,0,1,3.438-14.1,20.247,20.247,0,0,1,7.653-7.338A26.335,26.335,0,0,1,304.645,151.78ZM293.33,223.392a11.1,11.1,0,0,0,11.1-11.083V152.283a25.932,25.932,0,0,0-11.366,3.115c-7.189,4-10.834,11.062-10.834,21v35.907A11.1,11.1,0,0,0,293.33,223.392Z" transform="translate(-281.98 -131.762)" fill="#fff"/></g></g></g></svg>